<?xml version="1.0" encoding="UTF-8" standalone="no"?>
<!-- Created with Inkscape (http://www.inkscape.org/) -->

<svg
   version="1.1"
   id="svg1"
   width="498.94937"
   height="398.57068"
   viewBox="0 0 498.94937 398.57068"
   xmlns="http://www.w3.org/2000/svg"
   xmlns:svg="http://www.w3.org/2000/svg">
  <defs
     id="defs1" />
  <g
     id="g1"
     transform="translate(-259.92914,-269.12966)">
    <g
       id="g2">
      <path
         style="fill:#f9d0a6"
         d="m 679.25,667.28375 c 1.5125,-0.22913 3.9875,-0.22913 5.5,0 l 2.75,0.41659 H 682 676.5 Z M 676.25218,650.5 l 0.0202,-4 0.4349,2.26166 c 0.23919,1.24391 0.23011,3.04391 -0.0202,4 -0.25029,0.95609 -0.446,-0.0617 -0.4349,-2.26166 z M 273.8125,650.31689 c 0.72187,-0.28887 1.58438,-0.25335 1.91667,0.0789 0.33229,0.33229 -0.25834,0.56864 -1.3125,0.52522 L 272.5,650.84211 Z m 90.94916,-0.0241 c 1.24391,-0.23919 3.04391,-0.23011 4,0.0202 0.95609,0.25029 -0.0617,0.446 -2.26166,0.4349 l -4,-0.0202 z m 146.05084,0.0241 c 0.72187,-0.28887 1.58438,-0.25335 1.91667,0.0789 0.33229,0.33229 -0.25834,0.56864 -1.3125,0.52522 L 509.5,650.84211 Z m 71.9375,0.0208 c 0.6875,-0.27741 1.8125,-0.27741 2.5,0 l 1.25,0.50439 h -2.5 -2.5 z m 60,0 c 0.6875,-0.27741 1.8125,-0.27741 2.5,0 l 1.25,0.50439 h -2.5 -2.5 z m 52.51903,-0.0307 c 0.97297,-0.25354 2.32297,-0.23687 3,0.0371 0.67703,0.27393 -0.11903,0.48137 -1.76903,0.46099 l -3,-0.0371 z m -160.45653,-0.9901 c 0.72187,-0.28887 1.58438,-0.25335 1.91667,0.0789 0.33229,0.33229 -0.25834,0.56864 -1.3125,0.52522 L 533.5,649.84211 Z m 58.39807,-1.71603 c 0.70919,-0.76953 1.44699,-1.24947 1.63957,-1.06653 C 595.44328,647.09779 593.94,649 592.90156,649 h -0.98041 z M 658.40499,646.75 656.5,644.5 l 2.25,1.90499 c 2.11444,1.79022 2.70524,2.59501 1.90499,2.59501 -0.18976,0 -1.20226,-1.0125 -2.25,-2.25 z m -350.15281,-2.25 0.0202,-4 0.4349,2.26166 c 0.23919,1.24391 0.23011,3.04391 -0.0202,4 -0.25029,0.95609 -0.446,-0.0617 -0.4349,-2.26166 z M 611.39739,634 c 0,-7.975 0.1553,-11.2375 0.34512,-7.25 0.18981,3.9875 0.18981,10.5125 0,14.5 -0.18982,3.9875 -0.34512,0.725 -0.34512,-7.25 z M 482,644.5 c 1.29175,-1.375 2.57363,-2.5 2.84863,-2.5 0.275,0 -0.55688,1.125 -1.84863,2.5 -1.29175,1.375 -2.57363,2.5 -2.84863,2.5 -0.275,0 0.55688,-1.125 1.84863,-2.5 z m 271,2.12244 c 0,-0.20765 0.7875,-0.99515 1.75,-1.75 l 1.75,-1.37244 -1.37244,1.75 C 753.82119,646.91575 753,647.44548 753,646.62244 Z M 403.87244,644.25 402.5,642.5 l 1.75,1.37244 c 1.66575,1.30637 2.19548,2.12756 1.37244,2.12756 -0.20765,0 -0.99515,-0.7875 -1.75,-1.75 z M 384,644.62244 c 0,-0.20765 0.7875,-0.99515 1.75,-1.75 l 1.75,-1.37244 -1.37244,1.75 C 384.82119,644.91575 384,645.44548 384,644.62244 Z m 284.10039,-1.91792 -1.3239,-2.20452 1.80223,1.72619 c 0.99123,0.94941 1.58698,1.94144 1.3239,2.20452 -0.26308,0.26308 -1.07408,-0.5137 -1.80223,-1.72619 z m -168.02144,-1.28785 0.0789,-1.91667 0.52522,1.3125 c 0.28887,0.72187 0.25335,1.58438 -0.0789,1.91667 -0.33229,0.33229 -0.56864,-0.25834 -0.52522,-1.3125 z M 473,640.62244 c 0,-0.20765 0.7875,-0.99515 1.75,-1.75 l 1.75,-1.37244 -1.37244,1.75 C 473.82119,640.91575 473,641.44548 473,640.62244 Z m 97.996,-13.82582 -0.496,-13.70339 0.78114,0.78453 0.78114,0.78452 -0.28515,12.91886 L 571.49199,640.5 Z M 629.232,637 v -3.5 l 0.45733,1.75 c 0.25152,0.9625 0.25152,2.5375 0,3.5 l -0.45733,1.75 z m 37.14976,-9.5 0.004,-12 0.35605,6.28919 c 0.19583,3.45905 0.19422,8.85905 -0.004,12 C 666.54,636.93013 666.37978,634.1 666.38175,627.5 Z m 91.69719,8.91667 0.0789,-1.91667 0.52522,1.3125 c 0.28887,0.72187 0.25335,1.58438 -0.0789,1.91667 -0.33229,0.33229 -0.56864,-0.25834 -0.52522,-1.3125 z M 350.37407,626.5 l 0.004,-11 0.36191,5.78651 c 0.19905,3.18258 0.1972,8.13258 -0.004,11 -0.20131,2.86742 -0.36417,0.26349 -0.36191,-5.78651 z m 58.78382,5.5 v -2.5 l 0.50439,1.25 c 0.27741,0.6875 0.27741,1.8125 0,2.5 l -0.50439,1.25 z m 297,0 v -2.5 l 0.50439,1.25 c 0.27741,0.6875 0.27741,1.8125 0,2.5 l -0.50439,1.25 z m 10.92106,0.41667 0.0789,-1.91667 0.52522,1.3125 c 0.28887,0.72187 0.25335,1.58438 -0.0789,1.91667 -0.33229,0.33229 -0.56864,-0.25834 -0.52522,-1.3125 z m -288,-1 0.0789,-1.91667 0.52522,1.3125 c 0.28887,0.72187 0.25335,1.58438 -0.0789,1.91667 -0.33229,0.33229 -0.56864,-0.25834 -0.52522,-1.3125 z m 59,0 0.0789,-1.91667 0.52522,1.3125 c 0.28887,0.72187 0.25335,1.58438 -0.0789,1.91667 -0.33229,0.33229 -0.56864,-0.25834 -0.52522,-1.3125 z M 457.27236,627 v -4.5 l 0.43337,2.25 c 0.23836,1.2375 0.23836,3.2625 0,4.5 l -0.43337,2.25 z M 280.25,629.31067 c 0.9625,-0.25152 2.5375,-0.25152 3.5,0 l 1.75,0.45733 H 282 278.5 Z M 440.232,627 v -3.5 l 0.45733,1.75 c 0.25152,0.9625 0.25152,2.5375 0,3.5 l -0.45733,1.75 z m 5.96295,0.5 0.0371,-3 0.46099,1.76903 c 0.25354,0.97297 0.23687,2.32297 -0.0371,3 -0.27393,0.67703 -0.48137,-0.11903 -0.46099,-1.76903 z m 32,0 0.0371,-3 0.46099,1.76903 c 0.25354,0.97297 0.23687,2.32297 -0.0371,3 -0.27393,0.67703 -0.48137,-0.11903 -0.46099,-1.76903 z M 648.25,629.28375 c 1.5125,-0.22913 3.9875,-0.22913 5.5,0 l 2.75,0.41659 H 651 645.5 Z M 754.40499,627.75 752.5,625.5 l 2.25,1.90499 c 2.11444,1.79022 2.70524,2.59501 1.90499,2.59501 -0.18976,0 -1.20226,-1.0125 -2.25,-2.25 z m -26.53255,-2.5 -1.37244,-1.75 1.75,1.37244 c 0.9625,0.75485 1.75,1.54235 1.75,1.75 0,0.82304 -0.82119,0.29331 -2.12756,-1.37244 z M 391.15789,622 v -2.5 l 0.50439,1.25 c 0.27741,0.6875 0.27741,1.8125 0,2.5 l -0.50439,1.25 z M 278.75,622.29427 c 1.2375,-0.23836 3.2625,-0.23836 4.5,0 l 2.25,0.43337 h -4.5 -4.5 z m 130.32895,-0.8776 0.0789,-1.91667 0.52522,1.3125 c 0.28887,0.72187 0.25335,1.58438 -0.0789,1.91667 -0.33229,0.33229 -0.56864,-0.25834 -0.52522,-1.3125 z m 79,0 0.0789,-1.91667 0.52522,1.3125 c 0.28887,0.72187 0.25335,1.58438 -0.0789,1.91667 -0.33229,0.33229 -0.56864,-0.25834 -0.52522,-1.3125 z m 160.17105,0.894 c 0.9625,-0.25152 2.5375,-0.25152 3.5,0 l 1.75,0.45733 h -3.5 -3.5 z m 68.82895,-1.894 0.0789,-1.91667 0.52522,1.3125 c 0.28887,0.72187 0.25335,1.58438 -0.0789,1.91667 -0.33229,0.33229 -0.56864,-0.25834 -0.52522,-1.3125 z M 527.232,617 v -3.5 l 0.45733,1.75 c 0.25152,0.9625 0.25152,2.5375 0,3.5 L 527.232,620.5 Z M 612,618.62244 c 0,-0.20765 0.7875,-0.99515 1.75,-1.75 l 1.75,-1.37244 -1.37244,1.75 C 612.82119,618.91575 612,619.44548 612,618.62244 Z m 123.07895,-2.20577 0.0789,-1.91667 0.52522,1.3125 c 0.28887,0.72187 0.25335,1.58438 -0.0789,1.91667 -0.33229,0.33229 -0.56864,-0.25834 -0.52522,-1.3125 z M 555,614.60699 c 0,-0.21616 0.69837,-0.661 1.55194,-0.98855 l 1.55194,-0.59553 -0.61096,0.98854 C 556.90566,614.96166 555,615.4169 555,614.60699 Z m -62.60596,-2.02252 c -0.29875,-0.77854 -0.39713,-2.69104 -0.21861,-4.25 L 492.5,605.5 l 3,-0.14474 3,-0.14475 -2.75,0.46117 -2.75,0.46116 v 3.37322 3.37321 l 3.75,0.39226 3.75,0.39226 -3.78138,0.16811 -3.78139,0.1681 z m 20.85596,0.69928 c 1.5125,-0.22913 3.9875,-0.22913 5.5,0 l 2.75,0.41659 h -5.5 -5.5 z m 51.5,0.054 c 0.6875,-0.27741 1.8125,-0.27741 2.5,0 l 1.25,0.50439 h -2.5 -2.5 z m 22.5,-0.0481 5.75,-0.38942 v -3.38367 -3.38368 l -2.75,-0.46116 -2.75,-0.46117 3,0.14475 3,0.14474 v 4 4 l -6,0.0895 -6,0.0895 z m 38.82895,-0.87294 0.0789,-1.91667 0.52522,1.3125 c 0.28887,0.72187 0.25335,1.58438 -0.0789,1.91667 -0.33229,0.33229 -0.56864,-0.25834 -0.52522,-1.3125 z m -256.26645,-0.0998 c 0.72187,-0.28887 1.58438,-0.25335 1.91667,0.0789 0.33229,0.33229 -0.25834,0.56864 -1.3125,0.52522 L 368.5,612.84211 Z m 48.45653,-0.01 c 0.97297,-0.25354 2.32297,-0.23687 3,0.0371 0.67703,0.27393 -0.11903,0.48137 -1.76903,0.46099 l -3,-0.0371 z m 48,0 c 0.97297,-0.25354 2.32297,-0.23687 3,0.0371 0.67703,0.27393 -0.11903,0.48137 -1.76903,0.46099 l -3,-0.0371 z m 76.48097,-0.0127 c 1.2375,-0.23836 3.2625,-0.23836 4.5,0 l 2.25,0.43337 h -4.5 -4.5 z m 133.66058,-3.28595 0.0894,-3.49169 1.5,-0.1046 1.5,-0.10461 -1.19336,0.4087 -1.19335,0.40871 -0.39607,3.18759 -0.39607,3.18758 z m 20.40192,3.30857 c 0.72187,-0.28887 1.58438,-0.25335 1.91667,0.0789 0.33229,0.33229 -0.25834,0.56864 -1.3125,0.52522 L 695.5,612.84211 Z m 43.9375,-0.0226 c 1.2375,-0.23836 3.2625,-0.23836 4.5,0 l 2.25,0.43337 H 743 738.5 Z M 482.87244,610.25 481.5,608.5 l 1.75,1.37244 c 0.9625,0.75485 1.75,1.54235 1.75,1.75 0,0.82304 -0.82119,0.29331 -2.12756,-1.37244 z m 117.53433,-1.75 0.0932,-3 2.5,-0.1638 2.5,-0.16381 -2.19125,0.47566 -2.19126,0.47566 -0.40197,2.68814 -0.40198,2.68815 z m 61.46567,-0.25 -1.37244,-1.75 1.75,1.37244 c 0.9625,0.75485 1.75,1.54235 1.75,1.75 0,0.82304 -0.82119,0.29331 -2.12756,-1.37244 z m -342.79349,-0.83333 0.0789,-1.91667 0.52522,1.3125 c 0.28887,0.72187 0.25335,1.58438 -0.0789,1.91667 -0.33229,0.33229 -0.56864,-0.25834 -0.52522,-1.3125 z M 350.38536,596 c 0,-6.875 0.15977,-9.6875 0.35504,-6.25 0.19527,3.4375 0.19527,9.0625 0,12.5 -0.19527,3.4375 -0.35504,0.625 -0.35504,-6.25 z m 276.69359,10.41667 0.0789,-1.91667 0.52522,1.3125 c 0.28887,0.72187 0.25335,1.58438 -0.0789,1.91667 -0.33229,0.33229 -0.56864,-0.25834 -0.52522,-1.3125 z m -108.80992,-1.10966 c 0.97297,-0.25354 2.32297,-0.23687 3,0.0371 0.67703,0.27393 -0.11903,0.48137 -1.76903,0.46099 l -3,-0.0371 z m 46.98097,0.004 c 0.9625,-0.25152 2.5375,-0.25152 3.5,0 l 1.75,0.45733 h -3.5 -3.5 z m 41.5625,0.006 c 0.72187,-0.28887 1.58438,-0.25335 1.91667,0.0789 0.33229,0.33229 -0.25834,0.56864 -1.3125,0.52522 l -1.91667,-0.079 z m -238,-1 c 0.72187,-0.28887 1.58438,-0.25335 1.91667,0.0789 0.33229,0.33229 -0.25834,0.56864 -1.3125,0.52522 l -1.91667,-0.079 z m 45,0 c 0.72187,-0.28887 1.58438,-0.25335 1.91667,0.0789 0.33229,0.33229 -0.25834,0.56864 -1.3125,0.52522 l -1.91667,-0.079 z m 49,0 c 0.72187,-0.28887 1.58438,-0.25335 1.91667,0.0789 0.33229,0.33229 -0.25834,0.56864 -1.3125,0.52522 l -1.91667,-0.079 z m 77,0 c 0.72187,-0.28887 1.58438,-0.25335 1.91667,0.0789 0.33229,0.33229 -0.25834,0.56864 -1.3125,0.52522 l -1.91667,-0.079 z m 9,0 c 0.72187,-0.28887 1.58438,-0.25335 1.91667,0.0789 0.33229,0.33229 -0.25834,0.56864 -1.3125,0.52522 l -1.91667,-0.079 z m 93.9375,0.0208 c 0.6875,-0.27741 1.8125,-0.27741 2.5,0 l 1.25,0.50439 h -2.5 -2.5 z m 10.0625,-0.0208 c 0.72187,-0.28887 1.58438,-0.25335 1.91667,0.0789 0.33229,0.33229 -0.25834,0.56864 -1.3125,0.52522 l -1.91667,-0.079 z m 43,0 c 0.72187,-0.28887 1.58438,-0.25335 1.91667,0.0789 0.33229,0.33229 -0.25834,0.56864 -1.3125,0.52522 l -1.91667,-0.079 z m 41,0 c 0.72187,-0.28887 1.58438,-0.25335 1.91667,0.0789 0.33229,0.33229 -0.25834,0.56864 -1.3125,0.52522 l -1.91667,-0.079 z m 10,0 c 0.72187,-0.28887 1.58438,-0.25335 1.91667,0.0789 0.33229,0.33229 -0.25834,0.56864 -1.3125,0.52522 L 745.5,604.84211 Z M 510.32007,598 v -6.5 l 0.40333,3.25 c 0.22182,1.7875 0.22182,4.7125 0,6.5 l -0.40333,3.25 z M 500.232,596 v -3.5 l 0.45733,1.75 c 0.25152,0.9625 0.25152,2.5375 0,3.5 l -0.45733,1.75 z m 13.92589,-73 v -2.5 l 0.50439,1.25 c 0.27741,0.6875 0.27741,1.8125 0,2.5 l -0.50439,1.25 z m 96.20734,-137.5 0.005,-10 0.36844,5.28352 c 0.20265,2.90594 0.20052,7.40594 -0.005,10 -0.20525,2.59406 -0.37104,0.21648 -0.36844,-5.28352 z m 35.48802,7.24675 c 0.50384,-0.50384 1.98048,-0.74864 3.28141,-0.544 l 2.36534,0.37209 -3.28142,0.544 -3.28142,0.544 z M 413.15789,371 v -2.5 l 0.50439,1.25 c 0.27741,0.6875 0.27741,1.8125 0,2.5 l -0.50439,1.25 z M 423.75,359.33772 c 0.6875,-0.27741 1.8125,-0.27741 2.5,0 l 1.25,0.50439 h -2.5 -2.5 z m 104.9777,-38.05945 c 1.77523,-0.22091 4.92523,-0.22454 7,-0.008 l 3.7723,0.39359 -7,0.008 c -3.85,0.004 -5.54754,-0.17268 -3.7723,-0.39359 z"
         id="path8" />
      <path
         style="fill:#f6a75d"
         d="m 359.8125,649.31689 c 0.72187,-0.28887 1.58438,-0.25335 1.91667,0.0789 0.33229,0.33229 -0.25834,0.56864 -1.3125,0.52522 L 358.5,649.84211 Z m 111,0 c 0.72187,-0.28887 1.58438,-0.25335 1.91667,0.0789 0.33229,0.33229 -0.25834,0.56864 -1.3125,0.52522 L 469.5,649.84211 Z M 663,649.61658 c 0,-0.21089 1.11138,-0.59588 2.46974,-0.85555 l 2.46974,-0.47212 -0.52876,0.85555 C 666.89864,649.97302 663,650.39033 663,649.61658 Z m 71.8125,-0.29969 c 0.72187,-0.28887 1.58438,-0.25335 1.91667,0.0789 0.33229,0.33229 -0.25834,0.56864 -1.3125,0.52522 L 733.5,649.84211 Z m 9,0 c 0.72187,-0.28887 1.58438,-0.25335 1.91667,0.0789 0.33229,0.33229 -0.25834,0.56864 -1.3125,0.52522 L 742.5,649.84211 Z M 603.25,648.28375 c 1.5125,-0.22913 3.9875,-0.22913 5.5,0 l 2.75,0.41659 H 606 600.5 Z M 556.5,645 c 0.99549,-1.1 2.03498,-2 2.30998,-2 0.275,0 -0.31449,0.9 -1.30998,2 -0.99549,1.1 -2.03498,2 -2.30998,2 -0.275,0 0.31449,-0.9 1.30998,-2 z m 167.95888,0.93347 c -0.36253,-0.58659 -0.44468,-1.281 -0.18255,-1.54313 0.26212,-0.26213 0.74306,0.21781 1.06875,1.06653 0.67618,1.76211 0.0998,2.07206 -0.8862,0.4766 z M 432,645.62244 c 0,-0.20765 0.7875,-0.99515 1.75,-1.75 l 1.75,-1.37244 -1.37244,1.75 C 432.82119,645.91575 432,646.44548 432,645.62244 Z m 213.75,-3.28472 c 0.6875,-0.27741 1.8125,-0.27741 2.5,0 l 1.25,0.50439 h -2.5 -2.5 z m 48.0625,-0.0208 c 0.72187,-0.28887 1.58438,-0.25335 1.91667,0.0789 0.33229,0.33229 -0.25834,0.56864 -1.3125,0.52522 L 692.5,642.84211 Z m 46,0 c 0.72187,-0.28887 1.58438,-0.25335 1.91667,0.0789 0.33229,0.33229 -0.25834,0.56864 -1.3125,0.52522 L 738.5,642.84211 Z M 376,639.62244 c 0,-0.20765 0.7875,-0.99515 1.75,-1.75 l 1.75,-1.37244 -1.37244,1.75 C 376.82119,639.91575 376,640.44548 376,639.62244 Z m 278.68125,-0.64206 c 0.64968,-0.83579 1.35856,-3.53579 1.57529,-6 l 0.39405,-4.48038 0.1747,4.62756 0.17471,4.62755 -1.75,1.37245 L 653.5,640.5 Z M 360.36996,629 v -10.5 l 0.36728,5.25 c 0.202,2.8875 0.202,7.6125 0,10.5 l -0.36728,5.25 z m 221.00411,-0.5 0.004,-11 0.36191,5.78651 c 0.19905,3.18258 0.1972,8.13258 -0.004,11 -0.20131,2.86742 -0.36417,0.26349 -0.36191,-5.78651 z m -21.21618,7.5 v -2.5 l 0.50439,1.25 c 0.27741,0.6875 0.27741,1.8125 0,2.5 l -0.50439,1.25 z m -60.07894,-2.58333 0.0789,-1.91667 0.52522,1.3125 c 0.28887,0.72187 0.25335,1.58438 -0.0789,1.91667 -0.33229,0.33229 -0.56864,-0.25834 -0.52522,-1.3125 z m -53,-1 0.0789,-1.91667 0.52522,1.3125 c 0.28887,0.72187 0.25335,1.58438 -0.0789,1.91667 -0.33229,0.33229 -0.56864,-0.25834 -0.52522,-1.3125 z M 398.28601,626.5 l 0.0137,-5 0.41792,2.76375 c 0.22986,1.52006 0.22371,3.77006 -0.0136,5 -0.23736,1.22994 -0.42542,-0.0137 -0.41792,-2.76375 z m 89.96617,0 0.0202,-4 0.4349,2.26166 c 0.23919,1.24391 0.23011,3.04391 -0.0202,4 -0.25029,0.95609 -0.446,-0.0617 -0.4349,-2.26166 z M 707.232,627 v -3.5 l 0.45733,1.75 c 0.25152,0.9625 0.25152,2.5375 0,3.5 l -0.45733,1.75 z m -316.03705,-0.5 0.0371,-3 0.46099,1.76903 c 0.25354,0.97297 0.23687,2.32297 -0.0371,3 -0.27393,0.67703 -0.48137,-0.11903 -0.46099,-1.76903 z M 632,628.62244 c 0,-0.20765 0.7875,-0.99515 1.75,-1.75 l 1.75,-1.37244 -1.37244,1.75 C 632.82119,628.91575 632,629.44548 632,628.62244 Z m 24.19495,-9.12244 0.0371,-3 0.46099,1.76903 c 0.25354,0.97297 0.23687,2.32297 -0.0371,3 -0.27393,0.67703 -0.48137,-0.11903 -0.46099,-1.76903 z m 69,-2 0.0371,-3 0.46099,1.76903 c 0.25354,0.97297 0.23687,2.32297 -0.0371,3 -0.27393,0.67703 -0.48137,-0.11903 -0.46099,-1.76903 z m -90.68787,-3.48855 -0.61096,-0.98854 1.55194,0.59553 c 1.73242,0.66479 2.04939,1.38156 0.61096,1.38156 -0.51754,0 -1.21592,-0.44485 -1.55194,-0.98855 z m -13.23805,-0.70444 c 0.97297,-0.25354 2.32297,-0.23687 3,0.0371 0.67703,0.27393 -0.11903,0.48137 -1.76903,0.46099 l -3,-0.0371 z M 521.232,610 v -3.5 l 0.45733,1.75 c 0.25152,0.9625 0.25152,2.5375 0,3.5 l -0.45733,1.75 z m 123.03703,2.30701 c 0.97297,-0.25354 2.32297,-0.23687 3,0.0371 0.67703,0.27393 -0.11903,0.48137 -1.76903,0.46099 l -3,-0.0371 z m 5.54347,0.01 c 0.72187,-0.28887 1.58438,-0.25335 1.91667,0.0789 0.33229,0.33229 -0.25834,0.56864 -1.3125,0.52522 L 648.5,612.84211 Z M 433.40499,609.75 431.5,607.5 l 2.25,1.90499 c 2.11444,1.79022 2.70524,2.59501 1.90499,2.59501 -0.18976,0 -1.20226,-1.0125 -2.25,-2.25 z M 451,611.62244 c 0,-0.20765 0.7875,-0.99515 1.75,-1.75 l 1.75,-1.37244 -1.37244,1.75 C 451.82119,611.91575 451,612.44548 451,611.62244 Z m 79,-2 c 0,-0.20765 0.7875,-0.99515 1.75,-1.75 l 1.75,-1.37244 -1.37244,1.75 C 530.82119,609.91575 530,610.44548 530,609.62244 Z m 102,-0.56342 c 0,-0.51754 0.44485,-1.21592 0.98855,-1.55194 l 0.98854,-0.61096 -0.59553,1.55194 C 632.71677,610.18048 632,610.49745 632,609.05902 Z m -133.34023,-3.73614 c 0.63787,-0.45616 1.37624,-2.17792 1.64083,-3.82613 l 0.48106,-2.99675 -0.14083,3.42299 -0.14083,3.42299 -1.5,0.40314 -1.5,0.40314 z m 13.10189,-0.0301 c 1.24391,-0.23919 3.04391,-0.23011 4,0.0202 0.95609,0.25029 -0.0617,0.446 -2.26166,0.4349 l -4,-0.0202 z m 71.48834,0.0179 c 0.9625,-0.25152 2.5375,-0.25152 3.5,0 l 1.75,0.45733 h -3.5 -3.5 z m 97.5625,0.006 c 0.72187,-0.28887 1.58438,-0.25335 1.91667,0.0789 0.33229,0.33229 -0.25834,0.56864 -1.3125,0.52522 L 679.5,605.84211 Z M 620.75,604.33772 c 0.6875,-0.27741 1.8125,-0.27741 2.5,0 l 1.25,0.50439 H 622 619.5 Z M 572.40677,595.5 l 0.0932,-3 4,-0.11923 4,-0.11924 -3.69088,0.42608 -3.69088,0.42607 -0.40235,2.69316 -0.40235,2.69316 z m 8.75112,-1.5 v -2.5 l 0.50439,1.25 c 0.27741,0.6875 0.27741,1.8125 0,2.5 l -0.50439,1.25 z M 501.75,592.33772 c 0.6875,-0.27741 1.8125,-0.27741 2.5,0 l 1.25,0.50439 h -2.5 -2.5 z m -149.5,-8.02705 c 0.9625,-0.25152 2.5375,-0.25152 3.5,0 l 1.75,0.45733 H 354 350.5 Z M 605.4681,481 c 0,-31.625 0.12658,-44.5625 0.28128,-28.75 0.15471,15.8125 0.15471,41.6875 0,57.5 -0.1547,15.8125 -0.28128,2.875 -0.28128,-28.75 z"
         id="path7" />
      <path
         style="fill:#a2a3a5"
         d="m 319.42019,628.5 c -8.9e-4,-11 0.14522,-15.63644 0.32467,-10.30319 0.17945,5.33324 0.18018,14.33324 0.002,20 -0.17857,5.66675 -0.3254,1.30319 -0.32628,-9.69681 z m -33.44486,5.70351 0.48235,-4.70351 0.33938,3.88178 c 0.18666,2.13498 -0.0304,4.25156 -0.48235,4.70351 l -0.82173,0.82173 z m 10.40643,-6.70351 0.004,-12 0.35605,6.28919 c 0.19583,3.45905 0.19422,8.85905 -0.004,12 C 296.54,636.93013 296.37978,634.1 296.38175,627.5 Z M 271,632.62244 c 0,-0.20765 0.7875,-0.99515 1.75,-1.75 l 1.75,-1.37244 -1.37244,1.75 C 271.82119,632.91575 271,633.44548 271,632.62244 Z m 5.8125,-3.30555 c 0.72187,-0.28887 1.58438,-0.25335 1.91667,0.0789 0.33229,0.33229 -0.25834,0.56864 -1.3125,0.52522 L 275.5,629.84211 Z M 286.15789,620 v -2.5 l 0.50439,1.25 c 0.27741,0.6875 0.27741,1.8125 0,2.5 l -0.50439,1.25 z m -2.59902,-5.5318 C 282.49125,613.66069 282.09865,613 282.68643,613 c 0.58777,0 1.62888,0.675 2.31357,1.5 1.5572,1.87632 1.06734,1.86551 -1.44113,-0.0318 z M 311.25,605.28375 c 1.5125,-0.22913 3.9875,-0.22913 5.5,0 l 2.75,0.41659 h -5.5 -5.5 z m -37.4375,-0.96686 c 0.72187,-0.28887 1.58438,-0.25335 1.91667,0.0789 0.33229,0.33229 -0.25834,0.56864 -1.3125,0.52522 L 272.5,604.84211 Z m 40,-8 c 0.72187,-0.28887 1.58438,-0.25335 1.91667,0.0789 0.33229,0.33229 -0.25834,0.56864 -1.3125,0.52522 L 312.5,596.84211 Z m 55.26645,-57.90022 0.0789,-1.91667 0.52522,1.3125 c 0.28887,0.72187 0.25335,1.58438 -0.0789,1.91667 -0.33229,0.33229 -0.56864,-0.25834 -0.52522,-1.3125 z M 499.44614,505.5 c 4e-4,-17.6 0.13647,-24.65916 0.30237,-15.68703 0.1659,8.97214 0.16557,23.37214 -7.3e-4,32 -0.1663,8.62787 -0.30204,1.28703 -0.30164,-16.31297 z m 17.36636,20.81689 c 0.72187,-0.28887 1.58438,-0.25335 1.91667,0.0789 0.33229,0.33229 -0.25834,0.56864 -1.3125,0.52522 L 515.5,526.84211 Z M 514.39994,506.5 c 10e-4,-8.25 0.15629,-11.49193 0.34419,-7.20429 0.1879,4.28763 0.18676,11.03763 -0.003,15 -0.1893,3.96236 -0.34304,0.45429 -0.34164,-7.79571 z M 492.75,469.33772 c 0.6875,-0.27741 1.8125,-0.27741 2.5,0 l 1.25,0.50439 h -2.5 -2.5 z m -17.5,-36.02705 c 0.9625,-0.25152 2.5375,-0.25152 3.5,0 l 1.75,0.45733 h -3.5 -3.5 z m 71.5625,0.006 c 0.72187,-0.28887 1.58438,-0.25335 1.91667,0.0789 0.33229,0.33229 -0.25834,0.56864 -1.3125,0.52522 L 545.5,433.84211 Z m -81,-1 c 0.72187,-0.28887 1.58438,-0.25335 1.91667,0.0789 0.33229,0.33229 -0.25834,0.56864 -1.3125,0.52522 L 464.5,432.84211 Z m 91,0 c 0.72187,-0.28887 1.58438,-0.25335 1.91667,0.0789 0.33229,0.33229 -0.25834,0.56864 -1.3125,0.52522 L 555.5,432.84211 Z m -66.127,-18.06501 c 9.45202,-0.1642 25.20202,-0.16448 35,-6.2e-4 9.79797,0.16387 2.0645,0.29822 -17.1855,0.29856 -19.25,3.4e-4 -27.26653,-0.13373 -17.8145,-0.29794 z m -22.873,-0.93499 c 0.72187,-0.28887 1.58438,-0.25335 1.91667,0.0789 0.33229,0.33229 -0.25834,0.56864 -1.3125,0.52522 L 466.5,413.84211 Z m 84,0 c 0.72187,-0.28887 1.58438,-0.25335 1.91667,0.0789 0.33229,0.33229 -0.25834,0.56864 -1.3125,0.52522 L 550.5,413.84211 Z M 455.40499,407.75 453.5,405.5 l 2.25,1.90499 c 1.2375,1.04774 2.25,2.06024 2.25,2.25 0,0.80025 -0.80479,0.20945 -2.59501,-1.90499 z m -42.02323,-23.25 0.004,-12 0.35605,6.28919 c 0.19583,3.45905 0.19422,8.85905 -0.004,12 C 413.54,393.93013 413.37978,391.1 413.38175,384.5 Z m 35.69719,6.91667 0.0789,-1.91667 0.52522,1.3125 c 0.28887,0.72187 0.25335,1.58438 -0.0789,1.91667 -0.33229,0.33229 -0.56864,-0.25834 -0.52522,-1.3125 z m 125,0 0.0789,-1.91667 0.52522,1.3125 c 0.28887,0.72187 0.25335,1.58438 -0.0789,1.91667 -0.33229,0.33229 -0.56864,-0.25834 -0.52522,-1.3125 z M 539.75,388.33772 c 0.6875,-0.27741 1.8125,-0.27741 2.5,0 l 1.25,0.50439 H 541 538.5 Z M 575.33621,379 v -7.5 l 0.39226,3.75 c 0.21574,2.0625 0.21574,5.4375 0,7.5 l -0.39226,3.75 z m -23.25726,-1.58333 0.0789,-1.91667 0.52522,1.3125 c 0.28887,0.72187 0.25335,1.58438 -0.0789,1.91667 -0.33229,0.33229 -0.56864,-0.25834 -0.52522,-1.3125 z m 58.116,-3.91667 0.0371,-3 0.46099,1.76903 c 0.25354,0.97297 0.23687,2.32297 -0.0371,3 -0.27393,0.67703 -0.48137,-0.11903 -0.46099,-1.76903 z m -61.78996,-3.75 -1.90499,-2.25 2.25,1.90499 c 1.2375,1.04774 2.25,2.06024 2.25,2.25 0,0.80025 -0.80479,0.20945 -2.59501,-1.90499 z M 427,359.61663 c 0,-0.21085 0.90062,-0.61888 2.00138,-0.90674 l 2.00138,-0.52337 -0.5604,0.90674 C 429.90411,359.96417 427,360.4057 427,359.61663 Z m 167.26903,-0.30962 c 0.97297,-0.25354 2.32297,-0.23687 3,0.0371 0.67703,0.27393 -0.11903,0.48137 -1.76903,0.46099 l -3,-0.0371 z M 478.25,339.28375 c 1.5125,-0.22913 3.9875,-0.22913 5.5,0 l 2.75,0.41659 h -5.5 -5.5 z m 57.5,-0.016 c 2.3375,-0.21053 6.1625,-0.21053 8.5,0 l 4.25,0.3828 H 540 531.5 Z M 440,337.62244 c 0,-0.20765 0.7875,-0.99515 1.75,-1.75 l 1.75,-1.37244 -1.37244,1.75 C 440.82119,337.91575 440,338.44548 440,337.62244 Z M 579.92431,334.25 577.5,331.5 l 2.75,2.42431 c 1.5125,1.33338 2.75,2.57088 2.75,2.75 0,0.78428 -0.8098,0.14598 -3.07569,-2.42431 z M 470.75,322.33772 c 0.6875,-0.27741 1.8125,-0.27741 2.5,0 l 1.25,0.50439 h -2.5 -2.5 z m 77.51903,-0.0307 c 0.97297,-0.25354 2.32297,-0.23687 3,0.0371 0.67703,0.27393 -0.11903,0.48137 -1.76903,0.46099 l -3,-0.0371 z M 486.75,321.2596 c 3.4375,-0.19527 9.0625,-0.19527 12.5,0 3.4375,0.19527 0.625,0.35504 -6.25,0.35504 -6.875,0 -9.6875,-0.15977 -6.25,-0.35504 z m 34.01166,0.0331 c 1.24391,-0.23919 3.04391,-0.23011 4,0.0202 0.95609,0.25029 -0.0617,0.446 -2.26166,0.4349 l -4,-0.0202 z"
         id="path6" />
      <path
         style="fill:#f78826"
         d="m 686.32814,660.5 0.008,-7 0.39359,3.7723 c 0.21647,2.07477 0.21284,5.22477 -0.008,7 -0.22091,1.77524 -0.39803,0.0777 -0.39359,-3.7723 z M 417.75,649.33772 c 0.6875,-0.27741 1.8125,-0.27741 2.5,0 l 1.25,0.50439 h -2.5 -2.5 z m 95,0 c 0.6875,-0.27741 1.8125,-0.27741 2.5,0 l 1.25,0.50439 h -2.5 -2.5 z m 28.01166,-0.045 c 1.24391,-0.23919 3.04391,-0.23011 4,0.0202 0.95609,0.25029 -0.0617,0.446 -2.26166,0.4349 l -4,-0.0202 z m 197.48834,0.0179 c 0.9625,-0.25152 2.5375,-0.25152 3.5,0 l 1.75,0.45733 h -3.5 -3.5 z m -147.03336,-0.86064 c 0.36062,-0.36062 0.2883,-1.62195 -0.16072,-2.80295 l -0.81639,-2.14727 1.49381,-1.39542 1.49381,-1.39543 -0.65425,2.06136 -0.65425,2.06137 1.04067,0.64317 c 1.55061,0.95833 1.26081,2.22669 -0.67884,2.971 -0.94573,0.36292 -1.42446,0.36479 -1.06384,0.004 z M 521,647 c 0,-0.55 0.47656,-1 1.05902,-1 h 1.05901 L 522.5,647 c -0.33992,0.55 -0.81648,1 -1.05902,1 C 521.19844,648 521,647.55 521,647 Z m -169.92105,-1.58333 0.0789,-1.91667 0.52522,1.3125 c 0.28887,0.72187 0.25335,1.58438 -0.0789,1.91667 -0.33229,0.33229 -0.56864,-0.25834 -0.52522,-1.3125 z M 632.87244,645.25 631.5,643.5 l 1.75,1.37244 c 0.9625,0.75485 1.75,1.54235 1.75,1.75 0,0.82304 -0.82119,0.29331 -2.12756,-1.37244 z m 34,-3 -1.37244,-1.75 1.75,1.37244 c 0.9625,0.75485 1.75,1.54235 1.75,1.75 0,0.82304 -0.82119,0.29331 -2.12756,-1.37244 z M 417.75,642.33772 c 0.6875,-0.27741 1.8125,-0.27741 2.5,0 l 1.25,0.50439 h -2.5 -2.5 z m 49.0625,-0.0208 c 0.72187,-0.28887 1.58438,-0.25335 1.91667,0.0789 0.33229,0.33229 -0.25834,0.56864 -1.3125,0.52522 L 465.5,642.84211 Z m 47,0 c 0.72187,-0.28887 1.58438,-0.25335 1.91667,0.0789 0.33229,0.33229 -0.25834,0.56864 -1.3125,0.52522 L 512.5,642.84211 Z m 27.9375,0.0208 c 0.6875,-0.27741 1.8125,-0.27741 2.5,0 l 1.25,0.50439 H 543 540.5 Z M 726,641.61663 c 0,-0.21085 0.9,-0.61872 2,-0.90638 l 2,-0.52301 v 0.90638 c 0,0.49851 -0.9,0.90638 -2,0.90638 -1.1,0 -2,-0.17252 -2,-0.38337 z M 686.35496,628.5 c -0.003,-4.95 0.16605,-7.10108 0.37577,-4.78017 0.20972,2.3209 0.21222,6.3709 0.006,9 L 686.3605,637.5 Z M 640,632.62244 c 0,-0.20765 0.7875,-0.99515 1.75,-1.75 l 1.75,-1.37244 -1.37244,1.75 C 640.82119,632.91575 640,633.44548 640,632.62244 Z M 665.35496,624.5 c -0.003,-4.95 0.16605,-7.10108 0.37577,-4.78017 0.20972,2.3209 0.21222,6.3709 0.006,9 L 665.3605,633.5 Z m -165.0553,2.5 v -5.5 l 0.41659,2.75 c 0.22913,1.5125 0.22913,3.9875 0,5.5 l -0.41659,2.75 z m -92.0273,0 v -4.5 l 0.43337,2.25 c 0.23836,1.2375 0.23836,3.2625 0,4.5 l -0.43337,2.25 z m -27.02018,-0.5 0.0202,-4 0.4349,2.26166 c 0.23919,1.24391 0.23011,3.04391 -0.0202,4 -0.25029,0.95609 -0.446,-0.0617 -0.4349,-2.26166 z m 48.90571,1.5 v -2.5 l 0.50439,1.25 c 0.27741,0.6875 0.27741,1.8125 0,2.5 l -0.50439,1.25 z M 717.232,627 v -3.5 l 0.45733,1.75 c 0.25152,0.9625 0.25152,2.5375 0,3.5 l -0.45733,1.75 z m -115.92213,-7.5 0.0102,-6 0.40466,3.26791 c 0.22256,1.79735 0.21797,4.49735 -0.0102,6 -0.22818,1.50265 -0.41027,0.0321 -0.40466,-3.26791 z m -101.05769,-3 0.0202,-4 0.4349,2.26166 c 0.23919,1.24391 0.23011,3.04391 -0.0202,4 -0.25029,0.95609 -0.446,-0.0617 -0.4349,-2.26166 z m 80.94277,-1 0.0371,-3 0.46099,1.76903 c 0.25354,0.97297 0.23687,2.32297 -0.0371,3 -0.27393,0.67703 -0.48137,-0.11903 -0.46099,-1.76903 z m 171.46601,-2.94114 -0.54861,-1.42964 1.19383,-0.44986 1.19382,-0.44986 -2,-1.55767 -2,-1.55768 3,0.34003 3,0.34003 -0.325,1.3529 c -0.17875,0.74409 -0.74405,1.50382 -1.25623,1.6883 -0.51218,0.18448 -0.69609,0.71588 -0.40869,1.1809 0.2874,0.46502 0.11236,1.099 -0.38898,1.40885 l -0.91153,0.56335 z M 564.25218,609.5 l 0.0202,-4 0.4349,2.26166 c 0.23919,1.24391 0.23011,3.04391 -0.0202,4 -0.25029,0.95609 -0.446,-0.0617 -0.4349,-2.26166 z m 27.0929,1.95687 c -0.32569,-0.84872 -0.36872,-1.76657 -0.0956,-2.03966 0.27309,-0.2731 0.73656,0.42131 1.02992,1.54313 0.62315,2.38293 -0.0692,2.75089 -0.9343,0.49653 z m 151.46742,-0.13998 c 0.72187,-0.28887 1.58438,-0.25335 1.91667,0.0789 0.33229,0.33229 -0.25834,0.56864 -1.3125,0.52522 L 741.5,611.84211 Z M 633,610 c 0,-0.55 0.47656,-1 1.05902,-1 h 1.05901 L 634.5,610 c -0.33992,0.55 -0.81648,1 -1.05902,1 C 633.19844,611 633,610.55 633,610 Z m 45.07895,-1.14059 -0.0789,-1.6406 3.42985,-0.40041 3.42986,-0.40042 -0.48887,0.79101 C 684.10196,607.64405 682.82102,608 681.52432,608 h -2.35765 l -0.50439,1.25 -0.50439,1.25 z M 359.80715,596.54634 359.5,584.09268 l 0.69016,0.70366 c 0.91536,0.93326 1.50863,24.20815 0.61699,24.20562 -0.38106,-0.001 -0.83106,-5.60611 -1,-12.45562 z m 49.69993,10.46511 -0.61096,-0.98854 1.55194,0.59553 c 1.73242,0.66479 2.04939,1.38156 0.61096,1.38156 -0.51754,0 -1.21592,-0.44485 -1.55194,-0.98855 z m 57.30542,-2.69456 c 0.72187,-0.28887 1.58438,-0.25335 1.91667,0.0789 0.33229,0.33229 -0.25834,0.56864 -1.3125,0.52522 L 465.5,604.84211 Z m 76.9375,0.0208 c 0.6875,-0.27741 1.8125,-0.27741 2.5,0 l 1.25,0.50439 H 545 542.5 Z M 572.232,602 v -3.5 l 0.45733,1.75 c 0.25152,0.9625 0.25152,2.5375 0,3.5 l -0.45733,1.75 z m 9.05401,-1.5 0.0136,-5 0.41792,2.76375 c 0.22986,1.52006 0.22371,3.77006 -0.0136,5 -0.23736,1.22994 -0.42542,-0.0137 -0.41792,-2.76375 z m 66.46399,3.83772 c 0.6875,-0.27741 1.8125,-0.27741 2.5,0 l 1.25,0.50439 h -2.5 -2.5 z m 52.0625,-0.0208 c 0.72187,-0.28887 1.58438,-0.25335 1.91667,0.0789 0.33229,0.33229 -0.25834,0.56864 -1.3125,0.52522 L 698.5,604.84211 Z m 41.9375,0.0208 c 0.6875,-0.27741 1.8125,-0.27741 2.5,0 l 1.25,0.50439 H 743 740.5 Z M 502,594.45169 v -1.36106 l 3.54663,-0.66536 c 1.95064,-0.36594 3.82564,-0.38633 4.16666,-0.0453 0.34103,0.34102 -0.60651,0.62004 -2.10564,0.62004 h -2.72568 l 0.54777,0.88631 0.54777,0.88631 -1.98876,0.52007 L 502,595.81276 Z m 118.80319,-52.19816 c 5.66676,-0.17857 14.66676,-0.17784 20,0.002 5.33325,0.17945 0.69681,0.32556 -10.30319,0.32467 -11,-8.8e-4 -15.36356,-0.14771 -9.69681,-0.32628 z M 653.41127,521 c 0,-9.625 0.14998,-13.5625 0.3333,-8.75 0.18331,4.8125 0.18331,12.6875 0,17.5 -0.18332,4.8125 -0.3333,0.875 -0.3333,-8.75 z m 0,-39 c 0,-9.625 0.14998,-13.5625 0.3333,-8.75 0.18331,4.8125 0.18331,12.6875 0,17.5 -0.18332,4.8125 -0.3333,0.875 -0.3333,-8.75 z m 0.02,-43.5 c 6.6e-4,-13.2 0.14295,-18.46169 0.31621,-11.69265 0.17326,6.76904 0.17273,17.56904 -10e-4,24 -0.17391,6.43096 -0.31567,0.89265 -0.31502,-12.30735 z m -0.12138,-35 0.0102,-6 0.40466,3.26791 c 0.22256,1.79735 0.21797,4.49735 -0.0102,6 -0.22818,1.50265 -0.41027,0.0321 -0.40466,-3.26791 z"
         id="path5" />
      <path
         style="fill:#f77914"
         d="M 677,636.5 V 606 h 3.46482 3.46481 l 1.0056,1.87897 1.00559,1.87897 4.77959,-2.45381 4.77959,-2.45381 5.76344,0.38962 5.76344,0.38962 2.73656,2.03975 c 1.50511,1.12186 3.60211,3.51792 4.66,5.32458 l 1.92344,3.28482 0.44744,7.72935 0.44745,7.72934 -1.22674,3.71707 c -1.61013,4.87872 -6.41202,10.25159 -10.91004,12.20729 l -3.60499,1.56743 -5.5,-0.0644 c -3.025,-0.0354 -6.37329,-0.19947 -7.44064,-0.36459 l -1.94064,-0.3002 -0.12476,2.5 c -0.0686,1.375 -0.20783,5.5375 -0.30936,9.25 L 686,667 h -4.5 -4.5 z m 25.41627,3.9629 c 2.86337,-1.87615 4.57499,-5.58907 5.26275,-11.41621 l 0.53663,-4.54669 -1.13193,-4.19638 -1.13193,-4.19638 -2.61075,-2.05362 L 700.73028,612 h -3.4148 c -3.3009,0 -9.22314,2.36685 -10.37999,4.14842 -0.93046,1.43292 -1.04423,19.12159 -0.14357,22.32159 l 0.83593,2.97 2.43608,0.72357 c 3.3045,0.98152 9.57677,0.11795 12.35234,-1.70068 z M 682,607.737 l 2.5,-0.46464 -3.25,-0.13618 L 678,607 l 0.0153,1.75 0.0153,1.75 0.73468,-1.14918 C 679.16939,608.71876 680.625,607.99255 682,607.737 Z m -323.23223,40.91123 c -3.15273,-0.70364 -6.07773,-1.62423 -6.5,-2.04575 L 351.5,645.83609 351.20851,615.41804 350.91702,585 H 355.45851 360 v 12 c 0,6.6 0.21412,12 0.47583,12 0.26171,0 1.94921,-0.89832 3.75,-1.99626 l 3.27417,-1.99626 5.28984,-0.004 5.28984,-0.004 3.71801,1.89679 3.71801,1.89679 2.49215,4.35321 L 390.5,617.5 v 8.5 8.5 l -2.74867,4.6758 -2.74867,4.6758 -5.25133,2.53484 -5.25133,2.53483 -5,0.50317 -5,0.50316 z m 16.96142,-8.23162 c 2.7035,-1.74087 4.86163,-5.7186 5.7913,-10.67415 l 0.69195,-3.68842 -1.18613,-4.94435 -1.18613,-4.94435 -1.90996,-1.72849 -1.90996,-1.72849 -4.76013,-0.40985 -4.76013,-0.40984 -3.27985,2.05912 -3.27985,2.05912 0.27985,12.73815 0.27985,12.73814 3,0.67012 c 3.87971,0.86663 9.40481,0.082 12.22919,-1.73671 z M 464,648.97423 c -5.0785,-0.89481 -9.54861,-3.51017 -12.3457,-7.22318 l -2.44908,-3.25105 -1.17939,-5.77835 -1.1794,-5.77835 1.07695,-5.02162 c 1.47686,-6.88638 3.43305,-10.32902 7.73265,-13.60849 l 3.65813,-2.79019 7.09292,-0.33724 7.09292,-0.33725 4.5,2.36311 4.5,2.36311 2.82871,5.46263 2.82871,5.46264 -0.40169,7.54889 -0.4017,7.54889 -2.38893,4.25052 -2.38892,4.25052 -3.16899,1.95854 c -3.93705,2.43323 -10.7894,3.73051 -15.40719,2.91687 z m 11.17921,-9.98278 2.67921,-2.86455 0.68434,-4.56345 0.68433,-4.56345 -0.6992,-4.66258 -0.6992,-4.66257 -2.83742,-2.83743 L 472.15385,612 h -4.40261 -4.40261 l -2.04935,2.25 c -1.12715,1.2375 -2.55559,3.23292 -3.17432,4.43426 L 457,620.86852 v 6.09786 6.09786 l 1.46257,3.50041 1.46256,3.50042 3.28744,1.44031 3.28743,1.4403 3,-0.54484 3,-0.54485 z m 33.10926,9.80349 -3.16264,-0.81952 -2.06292,-2.62257 L 501,642.73028 V 627.86514 613 h -4 -4 v -3.5 -3.5 h 4 4 l 0.116,-6.75 c 0.0638,-3.7125 0.31249,-6.01082 0.55264,-5.10739 l 0.43665,1.64262 1.93611,-0.50631 1.93611,-0.5063 -0.54777,-0.88631 L 504.88197,593 H 507.44098 510 v 6.5 6.5 h 5.5 5.5 v 3.5 3.5 h -5.5 -5.5 v 13.96482 13.96481 l 2.01457,1.07817 2.01457,1.07816 3.38933,-0.93584 3.38934,-0.93584 0.44506,2.32821 c 0.65999,3.45247 -0.56094,4.66957 -5.42468,5.4077 l -4.37708,0.66428 z m 70.71961,-0.10323 -3.49192,-1.19171 -1.71005,-3.5 -1.71005,-3.5 -0.048,-13.75 L 572,613 h -3.5 -3.5 v -3.43963 -3.43964 l 3.75,-0.31036 3.75,-0.31037 0.29772,-6.25 0.29771,-6.25 H 577 h 3.90457 l 0.29771,6.25 0.29772,6.25 5.8095,0.30168 5.80951,0.30168 -0.30951,3.19832 -0.3095,3.19832 -5.75,0.2999 -5.75,0.29991 v 12.51584 12.51583 l 0.97222,1.81661 c 1.33052,2.4861 3.36527,3.1023 6.89823,2.08906 l 2.98505,-0.8561 0.59579,1.5526 c 0.32768,0.85394 0.36019,1.7882 0.0723,2.07614 C 592.23559,645.09774 592,644.80833 592,644.16667 592,643.525 591.56114,643 591.02475,643 h -0.97525 l 0.96406,2.53568 0.96407,2.53567 -1.23882,0.38641 c -0.68134,0.21253 -2.81381,0.62025 -4.73881,0.90604 l -3.5,0.51963 z m 12.67503,-38.87921 -0.52522,-1.3125 -0.0789,1.91667 c -0.0434,1.05416 0.19293,1.64479 0.52522,1.3125 0.33229,-0.33229 0.36781,-1.1948 0.0789,-1.91667 z m 47.77933,39.13396 c -1.67066,-0.49145 -4.37066,-2.285 -6,-3.98567 L 630.5,641.86867 v -4.72831 -4.72832 l 1.82778,-2.78954 1.82778,-2.78955 3.67222,-1.59696 3.67222,-1.59697 7.5,-0.26403 7.5,-0.26404 0.30499,-3.46529 0.30499,-3.46529 -2.24355,-2.09019 -2.24355,-2.09018 -4.56144,0.006 c -2.50879,0.003 -6.31119,0.4914 -8.44977,1.0852 l -3.88833,1.07962 -0.85116,-1.3352 c -0.46815,-0.73436 -0.64502,-1.8977 -0.39306,-2.5852 l 0.45811,-1.25 -1.21861,-0.04 c -0.67024,-0.022 0.0956,-0.7516 1.70194,-1.6213 l 2.92056,-1.58126 8.15429,-0.50873 8.1543,-0.50873 3.46908,1.64619 3.46908,1.64619 1.57225,2.73384 1.57224,2.73384 0.59565,13.87908 0.59565,13.87908 1.51793,1.6773 1.51794,1.6773 -1.53647,2.19362 L 665.88659,649 h -2.01896 -2.01897 l -2.03973,-2.28998 -2.03974,-2.28997 -4.63459,2.2187 c -5.80913,2.78098 -9.78307,3.45174 -13.67216,2.30771 z m 13.63968,-8.22964 3.39788,-2.28319 0.30479,-4.71681 L 657.10958,629 h -6.444 -6.44401 l -2.17078,1.75779 -2.17078,1.75779 -0.0968,3.406 -0.0968,3.406 2.26762,1.83621 2.26762,1.83621 h 2.74133 2.74133 z m -244.19484,5.99582 -4.40728,-2.28737 -2.75,-5.39195 -2.75,-5.39195 v -6.62434 -6.62434 l 2.48293,-4.94635 2.48293,-4.94634 3.61054,-2.44295 3.61055,-2.44295 5.87008,-0.42461 c 3.22855,-0.23353 7.02989,-0.13351 8.44742,0.22227 l 2.57735,0.64687 -0.59284,0.95923 -0.59284,0.95923 1.55964,-0.59849 1.55965,-0.59849 3.872,3.872 3.872,3.87201 1.21595,5.85721 1.21596,5.85721 -0.69091,4.60726 c -1.2808,8.54104 -4.99538,13.79176 -11.75489,16.61606 L 424.06424,649 h -5.37484 -5.37483 z m 17.78576,-6.91443 2.19305,-2.03982 0.99435,-4.6365 0.99435,-4.6365 -0.57516,-4.4927 C 429.1642,615.12355 426.21825,612 418.98882,612 h -4.14267 l -2.77593,2.77593 -2.77593,2.77593 -0.70842,4.72407 -0.70842,4.72407 0.67658,4.51172 0.67657,4.51173 2.02282,2.57159 c 1.11255,1.41438 2.97316,2.97022 4.1347,3.45743 l 2.11188,0.88583 3.5,-0.55013 3.5,-0.55013 z m 104.98255,7.75015 c -4.93631,-1.76037 -4.97003,-1.80802 -3.52466,-4.98026 l 1.22581,-2.69036 2.079,0.5218 c 1.14346,0.28699 4.38427,1.01618 7.20181,1.62044 l 5.12279,1.09864 3.60983,-1.50828 L 551,640.10205 v -2.93601 -2.93602 l -2.25,-1.46077 c -1.2375,-0.80342 -5.22353,-2.44557 -8.85783,-3.64923 l -6.60784,-2.18846 -2.39216,-2.54635 L 528.5,621.83887 V 617 612.16113 l 2.39705,-2.55154 c 1.31838,-1.40335 3.94697,-3.06307 5.84131,-3.68826 l 3.44426,-1.1367 6.65869,0.45151 c 3.66228,0.24834 7.89229,0.95918 9.40003,1.57965 l 2.74134,1.12812 -1.14839,2.52043 -1.14838,2.52043 -6.74063,-0.62647 c -3.70735,-0.34457 -7.88169,-0.34009 -9.27631,0.01 l -2.53567,0.63642 -0.62205,1.9599 -0.62205,1.9599 1.05266,1.96692 1.05266,1.96691 7.21929,2.27844 7.21929,2.27845 3.03345,2.71038 3.03345,2.71039 v 5.47704 5.47704 l -2,2.24301 c -1.1,1.23365 -3.44805,2.85589 -5.21788,3.60499 L 549.06424,649 542.28212,648.9561 535.5,648.9122 Z m 198,0 c -4.65612,-1.66045 -4.87594,-1.86269 -4.13195,-3.8015 l 0.59072,-1.53939 2.68282,-0.53375 c 1.47555,-0.29356 4.62761,-0.0537 7.00459,0.53305 l 4.32176,1.0668 3.81308,-1.14242 3.81308,-1.14243 0.58105,-2.22194 0.58105,-2.22194 -1.36553,-2.08406 -1.36553,-2.08407 -4.35037,-1.30215 c -2.3927,-0.71618 -6.28145,-2.20923 -8.64167,-3.3179 l -4.29131,-2.01575 -1.56853,-3.0332 -1.56853,-3.0332 0.52509,-3.91487 0.5251,-3.91487 1.83474,-2.0604 c 1.00911,-1.13322 3.2828,-2.67329 5.05263,-3.42239 L 736.93576,605 H 743 h 6.06424 l 3.46788,1.44897 c 1.90733,0.79694 3.46788,1.71277 3.46788,2.03519 0,0.32241 -0.87042,0.12037 -1.93426,-0.44898 -3.07733,-1.64693 -3.62718,-1.2069 -1.2543,1.00378 2.6168,2.43792 2.77598,3.12368 0.52452,2.25972 l -1.66405,-0.63856 0.78927,1.27708 0.78928,1.27707 -2.36301,-0.74999 c -1.29966,-0.4125 -4.71995,-0.74999 -7.60064,-0.74999 h -5.23762 l -1.57515,1.30726 -1.57516,1.30726 0.30056,2.55405 0.30056,2.55405 2.5,1.2923 c 1.375,0.71076 5.09284,2.22179 8.26187,3.35783 l 5.76187,2.06554 -0.50111,0.8108 -0.50111,0.81081 1.73341,-0.13709 1.73341,-0.1371 1.78937,3.5 1.78936,3.5 -0.60627,3.3962 c -0.33346,1.86791 -1.2753,4.41725 -2.09299,5.66521 l -1.48671,2.26901 -3.96079,1.58479 L 745.95953,649 739.72976,648.9561 733.5,648.9122 Z M 601.30181,627 l 0.16208,-21 h 3.64305 3.64306 l 0.63542,3.17711 0.63542,3.1771 2.73958,-2.55492 C 616.46996,606.33979 619.29365,605 622.87524,605 c 3.63268,0 4.03015,0.55656 3.39219,4.75 L 625.773,613 h -2.95224 c -3.35455,0 -6.30635,1.32598 -9.57076,4.29928 L 611,619.34863 V 633.67431 648 h -4.93013 -4.93013 z m 6.47773,-86 -1.81972,-1.5 0.27009,-58.91691 0.27009,-58.91692 5,-3.53422 C 637.93135,399.44912 647.56175,393 649.02931,393 c 0.94919,0 2.27779,0.6651 2.95244,1.47801 l 1.22663,1.478 -0.0847,71.38939 c -0.0466,39.26416 -0.36003,72.10692 -0.69656,72.98391 l -0.61188,1.59452 -21.10799,0.28809 -21.108,0.28808 z"
         id="path4" />
      <path
         style="fill:#5c5d61"
         d="m 295,649.28678 c 0.825,-0.30543 2.175,-1.0574 3,-1.67105 l 1.5,-1.11573 -1.37244,1.75 c -0.75485,0.9625 -2.10485,1.71447 -3,1.67105 L 293.5,649.84211 Z m 16.25,-1.00303 c 1.5125,-0.22913 3.9875,-0.22913 5.5,0 l 2.75,0.41659 H 314 308.5 Z M 262.87244,645.25 261.5,643.5 l 1.75,1.37244 c 1.66575,1.30637 2.19548,2.12756 1.37244,2.12756 -0.20765,0 -0.99515,-0.7875 -1.75,-1.75 z m 13.94006,-2.93311 c 0.72187,-0.28887 1.58438,-0.25335 1.91667,0.0789 0.33229,0.33229 -0.25834,0.56864 -1.3125,0.52522 L 275.5,642.84211 Z M 270.15789,636 v -2.5 l 0.50439,1.25 c 0.27741,0.6875 0.27741,1.8125 0,2.5 l -0.50439,1.25 z M 275.75,612.29427 c 1.2375,-0.23836 3.2625,-0.23836 4.5,0 l 2.25,0.43337 h -4.5 -4.5 z m 1.0625,-7.97738 c 0.72187,-0.28887 1.58438,-0.25335 1.91667,0.0789 0.33229,0.33229 -0.25834,0.56864 -1.3125,0.52522 L 275.5,604.84211 Z M 307.19495,589.5 l 0.0371,-3 0.46099,1.76903 c 0.25354,0.97297 0.23687,2.32297 -0.0371,3 -0.27393,0.67703 -0.48137,-0.11903 -0.46099,-1.76903 z m 147.17028,-60 0.005,-10 0.36844,5.28352 c 0.20265,2.90594 0.20052,7.40594 -0.005,10 C 454.52842,537.37758 454.36263,535 454.36523,529.5 Z M 541.25,433.31067 c 0.9625,-0.25152 2.5375,-0.25152 3.5,0 l 1.75,0.45733 h -3.5 -3.5 z m -72.5,-0.97295 c 0.6875,-0.27741 1.8125,-0.27741 2.5,0 l 1.25,0.50439 H 470 467.5 Z M 438.87244,420.25 437.5,418.5 l 1.75,1.37244 c 0.9625,0.75485 1.75,1.54235 1.75,1.75 0,0.82304 -0.82119,0.29331 -2.12756,-1.37244 z m 32.94006,-5.93311 c 0.72187,-0.28887 1.58438,-0.25335 1.91667,0.0789 0.33229,0.33229 -0.25834,0.56864 -1.3125,0.52522 L 470.5,414.84211 Z m 72.4375,-0.006 c 0.9625,-0.25152 2.5375,-0.25152 3.5,0 l 1.75,0.45733 H 546 542.5 Z M 605,403.62244 c 0,-0.20765 0.7875,-0.99515 1.75,-1.75 l 1.75,-1.37244 -1.37244,1.75 C 605.82119,403.91575 605,404.44548 605,403.62244 Z m -155.92105,-9.20577 0.0789,-1.91667 0.52522,1.3125 c 0.28887,0.72187 0.25335,1.58438 -0.0789,1.91667 -0.33229,0.33229 -0.56864,-0.25834 -0.52522,-1.3125 z M 448.3605,380 v -9.5 l 0.37454,4.75 c 0.206,2.6125 0.206,6.8875 0,9.5 l -0.37454,4.75 z m 126.71845,7.41667 0.0789,-1.91667 0.52522,1.3125 c 0.28887,0.72187 0.25335,1.58438 -0.0789,1.91667 -0.33229,0.33229 -0.56864,-0.25834 -0.52522,-1.3125 z M 548,385.62244 c 0,-0.20765 0.7875,-0.99515 1.75,-1.75 l 1.75,-1.37244 -1.37244,1.75 C 548.82119,385.91575 548,386.44548 548,385.62244 Z M 472.15789,378 v -2.5 l 0.50439,1.25 c 0.27741,0.6875 0.27741,1.8125 0,2.5 l -0.50439,1.25 z m 58,0 v -2.5 l 0.50439,1.25 c 0.27741,0.6875 0.27741,1.8125 0,2.5 l -0.50439,1.25 z M 532,371.62244 c 0,-0.20765 0.7875,-0.99515 1.75,-1.75 l 1.75,-1.37244 -1.37244,1.75 C 532.82119,371.91575 532,372.44548 532,371.62244 Z M 575.15789,370 v -2.5 l 0.50439,1.25 c 0.27741,0.6875 0.27741,1.8125 0,2.5 l -0.50439,1.25 z m -7.7529,-23.25 -1.90499,-2.25 2.25,1.90499 c 1.2375,1.04774 2.25,2.06024 2.25,2.25 0,0.80025 -0.80479,0.20945 -2.59501,-1.90499 z M 548.75,339.33772 c 0.6875,-0.27741 1.8125,-0.27741 2.5,0 l 1.25,0.50439 h -2.5 -2.5 z m -23.9375,-1.02083 c 0.72187,-0.28887 1.58438,-0.25335 1.91667,0.0789 0.33229,0.33229 -0.25834,0.56864 -1.3125,0.52522 L 523.5,338.84211 Z M 474.75,322.33772 c 0.6875,-0.27741 1.8125,-0.27741 2.5,0 l 1.25,0.50439 h -2.5 -2.5 z m 70.0625,-0.0208 c 0.72187,-0.28887 1.58438,-0.25335 1.91667,0.0789 0.33229,0.33229 -0.25834,0.56864 -1.3125,0.52522 L 543.5,322.84211 Z M 505.39456,308.5 l 0.003,-14 0.346,7.29375 c 0.1903,4.01156 0.18902,10.31156 -0.003,14 -0.19186,3.68844 -0.34756,0.40625 -0.346,-7.29375 z m 12.97067,3 0.005,-10 0.36844,5.28352 c 0.20265,2.90594 0.20052,7.40594 -0.005,10 C 518.52842,319.37758 518.36263,317 518.36523,311.5 Z M 501.87244,292.25 500.5,290.5 l 1.75,1.37244 c 1.66575,1.30637 2.19548,2.12756 1.37244,2.12756 -0.20765,0 -0.99515,-0.7875 -1.75,-1.75 z M 521.5,292 c 0.99549,-1.1 2.03498,-2 2.30998,-2 0.275,0 -0.31449,0.9 -1.30998,2 -0.99549,1.1 -2.03498,2 -2.30998,2 -0.275,0 0.31449,-0.9 1.30998,-2 z m -23.34211,-9 v -2.5 l 0.50439,1.25 c 0.27741,0.6875 0.27741,1.8125 0,2.5 l -0.50439,1.25 z M 510.75,269.33772 c 0.6875,-0.27741 1.8125,-0.27741 2.5,0 l 1.25,0.50439 h -2.5 -2.5 z"
         id="path3" />
      <path
         style="fill:#212428"
         d="m 269.64255,649.01675 c -3.84101,-1.21147 -6.62945,-3.83342 -8.316,-7.81943 l -1.39741,-3.30268 0.65466,-3.48962 0.65465,-3.48963 2.82492,-2.82491 2.82492,-2.82492 4.49867,-1.13278 C 273.86124,623.50975 278.38637,623 281.44282,623 H 287 v -3.04545 -3.04546 L 284.54545,614.45455 282.09091,612 h -3.38652 c -1.86259,0 -5.51877,0.64171 -8.12484,1.42602 l -4.73831,1.42602 -1.3578,-3.17602 -1.3578,-3.17602 2.87055,-1.22568 c 1.5788,-0.67412 5.42871,-1.62684 8.55537,-2.11715 l 5.68482,-0.89146 4.13181,0.92309 c 5.64541,1.26126 8.5392,3.3453 10.21534,7.35686 L 296,615.93576 v 12.40968 12.40967 L 297.5,642 c 3.10146,2.57398 1.07813,7 -3.2,7 H 292 l -2.06011,-2.06011 -2.06011,-2.06011 -4.35805,2.1097 c -5.25542,2.5441 -10.02959,3.24145 -13.87918,2.02727 z M 284,640.10425 l 2.5,-1.8055 0.30479,-4.64937 L 287.10958,629 h -6.10024 -6.10025 l -2.45454,2.45455 c -2.67798,2.67797 -3.02739,4.60657 -1.38918,7.6676 2.19782,4.10666 7.99834,4.54708 12.93463,0.9821 z M 309,627 v -21 h 5 5 v 21 21 h -5 -5 z M 309.65499,594.17126 308,592.34252 v -3.04882 -3.04881 l 1.25559,-1.04205 c 0.69058,-0.57313 2.40653,-1.33092 3.81323,-1.68398 l 2.55764,-0.64192 2.31177,1.87196 2.31177,1.87196 v 2.87914 2.87914 l -2.23578,1.81043 C 316.78453,595.18531 314.77303,596 313.5442,596 h -2.23422 z M 372.25,541.96884 370,541.06445 v -2.43136 -2.43136 l 12.75,-7.00384 c 7.0125,-3.85211 24.675,-13.43168 39.25,-21.28792 14.575,-7.85625 31.45,-16.95546 37.5,-20.22046 6.05,-3.26501 16.07686,-8.62602 22.2819,-11.91335 l 11.2819,-5.97696 2.45287,0.61563 2.45287,0.61563 0.55839,2.23477 c 0.30712,1.22912 0.42647,16.78399 0.26523,34.56636 l -0.29316,32.3316 -1.94113,1.4184 L 494.61774,543 H 477.37397 460.1302 l -2.41344,-0.91759 -2.41345,-0.91759 -0.56047,-14.15789 c -0.30825,-7.78684 -0.76514,-14.36256 -1.0153,-14.61272 -0.25016,-0.25016 -14.54337,6.5338 -31.76268,15.07548 L 390.65701,543 l -8.0785,-0.0634 c -4.44318,-0.0349 -9.09101,-0.47036 -10.32851,-0.96777 z M 515,508.58156 v -17.41844 l 3.75,-2.30356 c 2.0625,-1.26695 11.4,-7.68045 20.75,-14.25221 C 570.81546,452.5969 589.01949,440 589.51176,440 589.78029,440 590,448.0574 590,457.90534 v 17.90535 l -6.75,4.92477 c -3.7125,2.70863 -12.78844,9.16373 -20.16877,14.34466 -7.38032,5.18093 -20.20532,14.25253 -28.5,20.1591 L 519.5,525.97844 517.25,525.98922 515,526 Z m -43.42166,-76.11861 -10.92167,-1.32015 -6.07683,-2.21573 c -11.24214,-4.09908 -17.12605,-9.20075 -20.81221,-18.04527 l -1.92474,-4.61821 -5.33232,-0.55034 -5.33232,-0.55035 -2.5143,-1.64743 -2.5143,-1.64744 -1.07483,-3.08324 L 414,395.70155 v -12.88289 -12.8829 l 1.46401,-3.50387 1.46401,-3.50387 3.50387,-1.46401 C 422.35902,360.6588 425.4619,360 427.32719,360 h 3.39142 l 2.13993,-6.51865 c 5.21652,-15.89063 14.52519,-24.64748 30.88456,-29.05375 l 5.7569,-1.55057 18.25,-0.58732 18.25,-0.58732 v -12.97999 -12.98 l -3.5,-3.87408 -3.5,-3.87408 v -5.11477 -5.11476 l 3.88235,-3.88236 L 506.76471,270 h 4.6673 4.66731 l 3.03798,1.571 3.03797,1.571 1.95403,4.41741 1.95403,4.4174 -1.02572,3.80923 -1.02571,3.80922 -2.76595,2.65193 -2.76595,2.65193 V 308.19956 321.5 l 16.5,0.68239 16.5,0.6824 7.5,1.59898 7.5,1.59899 6.49538,3.7306 6.49538,3.73061 4.56854,6.04931 4.56855,6.04931 2.31147,7.1887 L 593.2508,360 h 3.22538 c 1.77395,0 4.61283,0.48367 6.30861,1.07482 l 3.08324,1.07483 1.80313,2.67517 1.80312,2.67518 0.35789,12.54024 0.35788,12.54024 -1.08379,4.02489 -1.08379,4.02489 -2.50354,2.35196 -2.50355,2.35196 -5.37028,0.44534 -5.37028,0.44535 -2.21705,5.34905 -2.21706,5.34906 -3.75498,3.86925 c -6.98814,7.2008 -17.11739,10.57406 -36.58573,12.18386 l -12,0.99225 -26.5,-0.0926 -26.5,-0.0926 z m 87.85416,-19.92111 4.93251,-1.85421 4.14997,-4.14998 4.14997,-4.14997 1.28958,-4.94384 c 0.70928,-2.71911 1.51775,-9.28815 1.7966,-14.59786 l 0.50702,-9.65402 -1.21281,-8.29447 -1.21281,-8.29447 -2.45754,-4.84971 -2.45753,-4.8497 -4.55712,-2.89004 -4.55712,-2.89004 -5.15161,-1.10879 -5.15161,-1.10879 -36.56312,0.0464 -36.56311,0.0464 -5.91671,1.09376 c -7.19137,1.3294 -9.98516,2.72503 -14.16453,7.07584 -3.98715,4.15071 -5.66619,8.82706 -7.29249,20.31052 l -1.27161,8.97894 0.61902,9.02106 c 0.72613,10.58191 1.84727,15.04246 4.91301,19.54675 3.16843,4.65519 6.72636,7.01369 12.8897,8.54443 L 471.5,414.89874 513,414.64737 554.5,414.396 Z M 476.10576,385.09879 473,382.19758 v -3.64845 c 0,-2.00665 0.67762,-4.95882 1.50582,-6.56039 l 1.50583,-2.91195 3.94239,-1.18117 3.94238,-1.18116 3.08569,1.27813 c 1.69712,0.70297 3.97043,2.4029 5.05178,3.77763 L 494,374.26972 v 2.81809 c 0,1.54994 -0.53761,3.99801 -1.19469,5.44013 l -1.19468,2.62205 -2.75566,1.42501 c -1.51561,0.78375 -4.30541,1.425 -6.19955,1.425 h -3.44391 z m 59.66938,1.39657 C 532.32861,384.55649 531,382.07634 531,377.58152 v -3.54997 l 2.75,-3.0505 2.75,-3.05051 3.5,-0.51308 3.5,-0.51309 3.27493,2.04828 3.27492,2.04827 0.97508,2.56464 c 0.53629,1.41055 0.97507,3.65325 0.97507,4.98376 v 2.41913 l -2.75,3.07752 -2.75,3.07752 -4,0.45238 -4,0.45237 z"
         id="path2" />
    </g>
  </g>
</svg>
